<svg width="7844.5599995937455" height="4411.029678344727" xmlns="http://www.w3.org/2000/svg" xmlns:svg="http://www.w3.org/2000/svg" clip-rule="evenodd">
 <g>
  <title>Layer 1</title>
  <g id="Слой_x0020_1">
   <metadata id="CorelCorpID_0Corel-Layer"/>
   <g id="_1111758752">
    <path fill="#fff" id="svg_1" d="m698.779941,3287.139895c-71.68,0 -136.79,21.91 -189.53,59.19c53.35,10.23 103.68,29.05 149.46,54.93c12.91,-2.35 26.28,-3.59 40.07,-3.59c120.51,0 210.26,93.91 210.26,208.6c0,30.91 -6.47,60.48 -18.3,87.21c12.89,44.13 19.81,90.79 19.81,139.08c0,6.7 -0.17,13.36 -0.43,20c69.55,-58.27 112.78,-145.44 112.78,-243.8c0,-177.84 -140.45,-321.62 -324.12,-321.62zm6821.61,121.33c-61.05,0 -110.53,-49.49 -110.53,-110.51l213.65,-0.01l17.75,0l203.3,0.01c0,61.02 -49.49,110.51 -110.52,110.51l-44.73,0l0,504.47l-113.86,0l-10.35,-504.47l-44.71,0zm-7171.5,-110.51c0,61.02 -49.49,110.51 -110.51,110.51l-124.52,0l0,504.47l-113.86,0l0,-614.99l348.89,0.01zm772.07,614.98l113.86,0l0,-232.71l58.17,0c178.69,0 220.24,-113.02 220.24,-190.31c0,-58.17 -23.27,-191.97 -220.24,-191.97l-172.03,0l0,614.99zm113.86,-504.47l67.32,0c29.92,0 97.23,4.99 97.23,80.62c0,75.63 -67.31,80.62 -97.23,80.62l-67.32,0l0,-161.24zm368.16,504.47l113.86,0l0,-460.42l163.72,460.42l96.41,0l163.72,-460.42l0,460.42l113.85,0l0,-614.99l-154.58,0l-171.2,470.38l-171.2,-470.38l-154.58,0l0,614.99zm730.52,0l125.49,0l63.17,-158.73l226.04,0l63.16,158.73l125.49,0l-255.96,-614.99l-91.43,0l-255.96,614.99zm231.87,-269.27l69.8,-179.51l69.82,179.51l-139.62,0zm450.45,-345.72l0,614.99l717.21,0l0,-614.99l-113.86,0l0,504.45l-187.82,0l0,-504.45l-113.86,0l0,504.45l-187.82,0l0,-504.45l-113.85,0zm937.44,176.17c54.02,-72.29 128.82,-76.45 161.23,-76.45c108.04,0 172.04,71.48 193.65,153.75l-277.59,0l0,108.04l278.41,0c-19.95,100.56 -107.21,157.9 -195.3,157.9c-62.33,0 -118.85,-23.27 -154.58,-71.48l-132.14,0c50.69,108.05 149.59,182.02 285.05,182.02c219.41,0 318.3,-178.68 318.3,-322.46c0,-144.6 -101.38,-318.3 -314.96,-318.3c-134.64,0 -241.86,71.47 -291.72,186.98l129.65,0zm575.11,438.82l113.86,0l0,-269.27l191.14,269.27l136.29,0l-231.86,-312.49l231.86,-302.5l-136.29,0l-191.14,266.77l0,-266.77l-113.86,0l0,614.99zm1055.25,-438.82c-51.53,-118 -157.91,-186.98 -285.06,-186.98c-217.75,0 -321.63,181.17 -321.63,318.3c0,141.28 104.72,322.46 319.96,322.46c133.8,0 232.71,-73.97 283.4,-182.02l-132.14,0c-38.23,49.88 -93.09,71.48 -147.93,71.48c-118.01,0 -209.43,-96.41 -209.43,-211.92c0,-108.04 85.6,-207.77 208.6,-207.77c73.13,0 123.83,37.4 154.58,76.45l129.65,0zm89.75,438.82l113.86,0l0,-504.47l224.39,0l0,504.47l113.85,0l0,-614.99l-452.1,0l0,614.99zm1296.47,0l113.86,0l0,-232.71l58.17,0c178.69,0 220.24,-113.02 220.24,-190.31c0,-58.17 -23.32,-191.97 -220.24,-191.97l-172.03,0l0,614.99zm113.86,-504.47l67.32,0c29.92,0 97.23,4.99 97.23,80.62c0,75.63 -67.36,80.62 -97.23,80.62l-67.32,0l0,-161.24zm-536.04,-121.33c-71.68,0 -136.79,21.91 -189.53,59.19c53.35,10.23 103.68,29.05 149.46,54.93c12.91,-2.35 26.28,-3.59 40.07,-3.59c120.51,0 210.26,93.91 210.26,208.6c0,30.91 -6.47,60.48 -18.3,87.21c12.89,44.13 19.81,90.79 19.81,139.08c0,6.7 -0.17,13.36 -0.43,20c69.55,-58.27 112.78,-145.44 112.78,-243.8c0,-177.84 -140.46,-321.62 -324.12,-321.62zm-202.61,68.96c-74.78,58.86 -121.51,150.1 -121.51,252.66c0,177.85 141.28,319.14 324.12,319.14c4.88,0 9.71,-0.12 14.52,-0.32c11.25,-36.13 18.45,-74.05 21.12,-113.19c-11.77,1.95 -23.94,2.97 -36.47,2.97c-118.85,0 -209.43,-94.74 -209.43,-211.09c0,-75.44 38.83,-141.89 99.72,-178.54c-27.69,-27.32 -58.59,-51.4 -92.07,-71.63zm-5848.88,0c-74.78,58.86 -121.51,150.1 -121.51,252.66c0,177.85 141.28,319.14 324.12,319.14c4.88,0 9.71,-0.12 14.52,-0.32c11.25,-36.13 18.45,-74.05 21.12,-113.19c-11.77,1.95 -23.94,2.97 -36.47,2.97c-118.85,0 -209.43,-94.74 -209.43,-211.09c0,-75.44 38.83,-141.89 99.72,-178.54c-27.68,-27.32 -58.59,-51.4 -92.07,-71.63z"/>
    <path fill="#fff" id="svg_2" d="m166.259941,4127.439895l0,216.07l-21.01,0l0,-184.61l-122.69,184.61l-22.56,0l0,-216.07l21.01,0l0,184.26l122.44,-184.26l22.81,0zm101.03,216.07l-21.02,0l0,-216.07l21.02,0l0,95.43l103.83,0l0,-95.43l21,0l0,216.07l-21,0l0,-102.03l-103.83,0l0,102.03zm308.7,0l0,-216.07l21,0l0,216.07l-21,0zm21.35,-111.13l94.68,-104.94l28.01,0l-96.63,102.64l100.84,113.43l-26.92,0l-99.98,-111.13zm-21.8,-0.25l-100.19,111.38l-26.91,0l100.84,-113.43l-96.63,-102.64l28.46,0l94.43,104.69zm371.27,-104.69l0,216.07l-21.02,0l0,-184.61l-122.69,184.61l-22.56,0l0,-216.07l21.02,0l0,184.26l122.44,-184.26l22.81,0zm101.02,216.07l-21.01,0l0,-216.07l21.01,0l0,95.43l103.83,0l0,-95.43l21.01,0l0,216.07l-21.01,0l0,-102.03l-103.83,0l0,102.03zm371.12,-216.07l0,216.07l-21.01,0l0,-184.61l-122.69,184.61l-22.56,0l0,-216.07l21.01,0l0,184.26l122.44,-184.26l22.81,0zm80.01,216.07l0,-216.07l52.83,0c49.61,0 74.42,20.6 74.42,61.82c0,21.41 -7.07,37.37 -21,48.02c-12.44,9.52 -29.66,14.4 -51.62,14.4l-33.61,0l0,91.83l-21.02,0zm21.02,-197.46l0,87.02l31.81,0c34.41,0 51.62,-14.3 51.62,-42.91c0,-29.41 -17.85,-44.11 -53.43,-44.11l-30,0zm340.81,-18.61l0,216.07l-21.02,0l0,-184.61l-122.69,184.61l-22.56,0l0,-216.07l21.02,0l0,184.26l122.44,-184.26l22.81,0zm101.02,216.07l-21.01,0l0,-216.07l21.01,0l0,95.43l103.84,0l0,-95.43l21,0l0,216.07l-21,0l0,-102.03l-103.84,0l0,102.03zm203.97,0l0,-216.07l102.63,0l0,18.61l-81.63,0l0,197.46l-21,0zm612.06,0l-21,0l0,-196.87l-43.21,0l0,-19.2l108.33,0l0,19.2l-44.12,0l0,196.87zm204.46,0l-111.94,0l0,-216.07l111.94,0l0,18.61l-90.93,0l0,76.82l80.13,0l0,18.61l-80.13,0l0,83.43l90.93,0l0,18.6zm67.11,0l-26.21,0l75.03,-108.93l-73.07,-107.14l26.26,0l59.42,89.73l59.11,-89.73l26.47,0l-73.48,107.23l74.93,108.84l-26.72,0l-60.31,-91.83l-61.43,91.83zm214.26,0l-21.02,0l0,-216.07l21.02,0l0,95.43l103.83,0l0,-95.43l21,0l0,216.07l-21,0l0,-102.03l-103.83,0l0,102.03zm402.21,-109.53c0,31.6 -10.7,58.46 -32.1,80.57c-21.42,22.1 -47.92,33.16 -79.53,33.16c-31.62,0 -57.87,-11 -78.77,-33c-20.91,-22.02 -31.37,-48.93 -31.37,-80.73c0,-30.02 10.9,-55.97 32.71,-77.88c21.81,-21.91 47.72,-32.87 77.73,-32.87c30.61,0 56.81,10.86 78.63,32.56c21.8,21.71 32.7,47.77 32.7,78.19zm-21.6,-0.31c0,-24.81 -8.81,-46.16 -26.42,-64.07c-17.6,-17.91 -38.8,-26.86 -63.61,-26.86c-24.01,0 -44.76,9.2 -62.27,27.61c-17.52,18.4 -26.27,39.71 -26.27,63.92c0,26.21 8.51,48.42 25.52,66.63c17.01,18.2 38.51,27.31 64.52,27.31c25.61,0 46.92,-9.4 63.92,-28.22c16.41,-18.4 24.61,-40.51 24.61,-66.32zm43.59,109.84l81.33,-216.07l17.4,0l81.33,216.07l-21.8,0l-67.88,-183.71l-0.74,0l-67.83,183.71l-21.81,0zm423.82,-109.53c0,31.6 -10.71,58.46 -32.11,80.57c-21.41,22.1 -47.91,33.16 -79.53,33.16c-31.61,0 -57.86,-11 -78.77,-33c-20.91,-22.02 -31.36,-48.93 -31.36,-80.73c0,-30.02 10.89,-55.97 32.7,-77.88c21.82,-21.91 47.72,-32.87 77.74,-32.87c30.6,0 56.81,10.86 78.62,32.56c21.8,21.71 32.71,47.77 32.71,78.19zm-21.6,-0.31c0,-24.81 -8.82,-46.16 -26.42,-64.07c-17.61,-17.91 -38.81,-26.86 -63.62,-26.86c-24.01,0 -44.76,9.2 -62.27,27.61c-17.51,18.4 -26.26,39.71 -26.26,63.92c0,26.21 8.51,48.42 25.51,66.63c17.01,18.2 38.52,27.31 64.53,27.31c25.6,0 46.91,-9.4 63.92,-28.22c16.4,-18.4 24.61,-40.51 24.61,-66.32zm76.3,109.84l0,-216.07l102.64,0l0,18.61l-81.63,0l0,197.46l-21.01,0zm319.99,-216.07l0,216.07l-21.02,0l0,-184.61l-122.69,184.61l-22.56,0l0,-216.07l21.02,0l0,184.26l122.44,-184.26l22.81,0zm232.95,0l0,216.07l-21.01,0l0,-184.61l-122.69,184.61l-22.56,0l0,-216.07l21.01,0l0,184.26l122.44,-184.26l22.81,0zm689.8,106.54c0,31.6 -10.7,58.46 -32.1,80.57c-21.42,22.1 -47.92,33.16 -79.53,33.16c-31.62,0 -57.87,-11 -78.77,-33c-20.91,-22.02 -31.37,-48.93 -31.37,-80.73c0,-30.02 10.9,-55.97 32.71,-77.88c21.81,-21.91 47.72,-32.87 77.73,-32.87c30.61,0 56.81,10.86 78.63,32.56c21.8,21.71 32.7,47.77 32.7,78.19zm-21.6,-0.31c0,-24.81 -8.81,-46.16 -26.42,-64.07c-17.6,-17.91 -38.8,-26.86 -63.61,-26.86c-24.01,0 -44.76,9.2 -62.27,27.61c-17.52,18.4 -26.26,39.71 -26.26,63.92c0,26.21 8.5,48.42 25.51,66.63c17.01,18.2 38.51,27.31 64.52,27.31c25.61,0 46.92,-9.4 63.92,-28.22c16.41,-18.4 24.61,-40.51 24.61,-66.32zm191.25,-106.23l0,18.61l-93.03,0l0,69.02l35.71,0c22,0 39.52,5.1 52.51,15.3c14.21,11.21 21.31,27.51 21.31,48.93c0,21.4 -7.1,37.7 -21.31,48.91c-12.99,10.2 -30.51,15.3 -52.51,15.3l-56.73,0l0,-216.07l114.05,0zm-93.03,106.23l0,91.24l35.71,0c15,0 27.21,-3.76 36.61,-11.2c10.2,-8.26 15.3,-19.71 15.3,-34.41c0,-14.72 -5.1,-26.17 -15.3,-34.47c-9.4,-7.46 -21.61,-11.16 -36.61,-11.16l-35.71,0zm377.01,0.31c0,31.6 -10.71,58.46 -32.11,80.57c-21.42,22.1 -47.92,33.16 -79.53,33.16c-31.62,0 -57.86,-11 -78.77,-33c-20.91,-22.02 -31.36,-48.93 -31.36,-80.73c0,-30.02 10.89,-55.97 32.7,-77.88c21.82,-21.91 47.72,-32.87 77.73,-32.87c30.61,0 56.82,10.86 78.63,32.56c21.8,21.71 32.71,47.77 32.71,78.19zm-21.6,-0.31c0,-24.81 -8.82,-46.16 -26.43,-64.07c-17.6,-17.91 -38.8,-26.86 -63.61,-26.86c-24.01,0 -44.76,9.2 -62.27,27.61c-17.51,18.4 -26.26,39.71 -26.26,63.92c0,26.21 8.51,48.42 25.51,66.63c17.01,18.2 38.51,27.31 64.52,27.31c25.61,0 46.92,-9.4 63.93,-28.22c16.4,-18.4 24.61,-40.51 24.61,-66.32zm77.19,109.84l0,-216.07l52.83,0c49.61,0 74.42,20.6 74.42,61.82c0,21.41 -7,37.41 -21,48.02c-12.41,9.6 -29.62,14.4 -51.62,14.4l-33.61,0l0,91.83l-21.02,0zm21.02,-197.46l0,87.02l31.81,0c34.42,0 51.62,-14.3 51.62,-42.91c0,-29.41 -17.8,-44.11 -53.43,-44.11l-30,0zm231.41,134.44l0.55,-0.05l68.93,-153l22.4,0l-97.83,216.07l-21.76,0l17.6,-37.41l-81.38,-178.66l22.11,0l69.38,153.05zm103.06,44.42l74.13,-197.47l17.4,0l74.12,197.47l12.61,0l0,18.6l-190.86,0l0,-18.6l12.6,0zm82.83,-168.56l-61.67,168.56l123.99,0l-61.77,-168.76l-0.55,0.2zm334.98,77.63c0,31.6 -10.7,58.46 -32.1,80.57c-21.42,22.1 -47.92,33.16 -79.53,33.16c-31.62,0 -57.87,-11 -78.77,-33c-20.91,-22.02 -31.37,-48.93 -31.37,-80.73c0,-30.02 10.9,-55.97 32.71,-77.88c21.81,-21.91 47.72,-32.87 77.73,-32.87c30.6,0 56.81,10.86 78.63,32.56c21.8,21.71 32.7,47.77 32.7,78.19zm-21.6,-0.31c0,-24.81 -8.81,-46.16 -26.42,-64.07c-17.6,-17.91 -38.8,-26.86 -63.61,-26.86c-24.01,0 -44.76,9.2 -62.28,27.61c-17.51,18.4 -26.26,39.71 -26.26,63.92c0,26.21 8.51,48.42 25.52,66.63c17.01,18.2 38.51,27.31 64.52,27.31c25.61,0 46.92,-9.4 63.92,-28.22c16.41,-18.4 24.61,-40.51 24.61,-66.32zm77.2,109.84l0,-216.07l40.53,0c22.4,0 39.31,3.7 50.71,11.11c14.01,9 21.01,24.1 21.01,45.3c0,23.21 -9.71,37.82 -29.11,43.82c27.41,8.2 41.11,25.71 41.11,52.52c0,42.21 -25.31,63.32 -75.92,63.32l-48.33,0zm20.42,-197.46l0,75.92l22.9,0c15.86,0 27.41,-2.49 34.67,-7.55c8.85,-6.01 13.25,-16.56 13.25,-31.61c0,-24.51 -17.35,-36.76 -52.11,-36.76l-18.71,0zm0,94.52l0,84.34l26.41,0c37.2,0 55.81,-13.91 55.81,-41.73c0,-16.79 -4.7,-28.4 -14.11,-34.81c-7.6,-5.19 -20.2,-7.8 -37.8,-7.8l-30.31,0zm322.09,102.94l-21.91,0l-26.96,-70.22l-87.73,0l-26.95,70.22l-21.91,0l84.02,-216.07l17.4,0l84.04,216.07zm-93.08,-183.65l-36.57,94.83l73.83,0l-36.57,-94.83l-0.69,0zm156.19,183.65l-21.02,0l0,-216.07l21.02,0l0,95.43l103.83,0l0,-95.43l21,0l0,216.07l-21,0l0,-102.03l-103.83,0l0,102.03zm357.8,-216.07l0,216.07l-21.01,0l0,-184.61l-122.7,184.61l-22.55,0l0,-216.07l21.01,0l0,184.26l122.44,-184.26l22.81,0zm178.64,216.07l-111.95,0l0,-216.07l111.95,0l0,18.61l-90.93,0l0,76.82l80.13,0l0,18.61l-80.13,0l0,83.43l90.93,0l0,18.6zm-5189.45,-218.47l0,285.99l-15.01,0l0,-285.99l15.01,0zm2466.53,0l0,285.99l-15,0l0,-285.99l15,0z" class="fil0"/>
    <path id="svg_3" d="m159.059941,2477.229895l1599.55,0c20.84,-122.72 31.82,-248.78 31.82,-377.43c0,-963.11 -608.29,-1783.97 -1461.57,-2099.8l-169.8,0c-87.49,0 -159.06,71.56 -159.06,159.05l0,2159.12c0,87.49 71.57,159.06 159.06,159.06zm2318.17,-1142.83l0,-1175.35c0,-87.49 -71.56,-159.05 -159.05,-159.05l-1191.47,0c624.45,222.05 1121.26,713.38 1350.52,1334.4z" fill="#E1251D"/>
   </g>
  </g>
 </g>
</svg>
