<svg width="8297.330078125" height="635.3192901611328" xmlns="http://www.w3.org/2000/svg" xmlns:svg="http://www.w3.org/2000/svg">
 <defs>
  <style type="text/css">
   <![CDATA[
    .fil0 {fill:#E1251D}
    .fil1 {fill:#fff;fill-rule:nonzero}
   ]]>
  </style>
 </defs>
 <g>
  <title>Layer 1</title>
  <g id="Label1">
   <metadata id="CorelCorpID_0Corel-Layer"/>
   <g id="_992945184">
    <path class="fil0" d="m38.76,635.27929l389.81,0c5.08,-29.91 7.76,-60.63 7.76,-91.98c0,-234.7 -148.24,-434.74 -356.19,-511.71l-41.38,0c-21.32,0 -38.76,17.44 -38.76,38.76l0,526.17c0,21.32 17.44,38.76 38.76,38.76zm564.94,-278.5l0,-286.43c0,-21.32 -17.44,-38.76 -38.76,-38.76l-290.36,0c152.18,54.12 273.25,173.85 329.12,325.19z" id="svg_1"/>
    <path class="fil1" d="m1564.02,31.56929c-67.55,0 -128.89,20.64 -178.6,55.77c50.28,9.64 97.7,27.37 140.84,51.76c12.16,-2.22 24.76,-3.39 37.76,-3.39c113.55,0 198.12,88.49 198.12,196.55c0,29.13 -6.09,56.99 -17.24,82.18c12.14,41.58 18.67,85.54 18.67,131.04c0,6.32 -0.17,12.59 -0.41,18.85c65.54,-54.91 106.27,-137.04 106.27,-229.72c0,-167.57 -132.35,-303.04 -305.41,-303.04zm6427.86,114.32c-57.53,0 -104.16,-46.63 -104.16,-104.13l201.32,-0.01l16.73,0l191.56,0.01c0,57.5 -46.63,104.13 -104.13,104.13l-42.16,0l0,475.33l-107.28,0l-9.76,-475.33l-42.12,0zm-6757.56,-104.13c0,57.5 -46.63,104.13 -104.13,104.13l-117.33,0l0,475.33l-107.29,0l0,-579.47l328.75,0.01zm727.51,579.46l107.29,0l0,-219.26l54.81,0c168.37,0 207.52,-106.5 207.52,-179.33c0,-54.81 -21.92,-180.88 -207.52,-180.88l-162.1,0l0,579.47zm107.29,-475.33l63.43,0c28.19,0 91.62,4.7 91.62,75.96c0,71.26 -63.43,75.96 -91.62,75.96l-63.43,0l0,-151.92zm346.91,475.33l107.28,0l0,-433.83l154.27,433.83l90.85,0l154.27,-433.83l0,433.83l107.28,0l0,-579.47l-145.66,0l-161.32,443.22l-161.31,-443.22l-145.66,0l0,579.47zm688.35,0l118.24,0l59.52,-149.56l213.01,0l59.51,149.56l118.25,0l-241.2,-579.47l-86.14,0l-241.19,579.47zm218.49,-253.72l65.77,-169.14l65.78,169.14l-131.55,0zm424.44,-325.75l0,579.47l675.82,0l0,-579.47l-107.29,0l0,475.32l-176.98,0l0,-475.32l-107.28,0l0,475.32l-176.98,0l0,-475.32l-107.29,0zm883.34,166c50.9,-68.12 121.38,-72.04 151.92,-72.04c101.8,0 162.11,67.35 182.47,144.87l-261.57,0l0,101.8l262.35,0c-18.8,94.76 -101.03,148.79 -184.03,148.79c-58.74,0 -111.99,-21.93 -145.66,-67.35l-124.52,0c47.77,101.8 140.96,171.5 268.61,171.5c206.74,0 299.92,-168.36 299.92,-303.84c0,-136.25 -95.53,-299.91 -296.78,-299.91c-126.87,0 -227.9,67.34 -274.88,176.18l122.17,0zm541.91,413.47l107.28,0l0,-253.72l180.11,253.72l128.43,0l-218.48,-294.44l218.48,-285.03l-128.43,0l-180.11,251.36l0,-251.36l-107.28,0l0,579.47zm994.34,-413.47c-48.56,-111.19 -148.8,-176.18 -268.61,-176.18c-205.18,0 -303.06,170.7 -303.06,299.91c0,133.13 98.67,303.84 301.49,303.84c126.08,0 219.27,-69.7 267.04,-171.5l-124.51,0c-36.02,46.99 -87.71,67.35 -139.4,67.35c-111.19,0 -197.34,-90.84 -197.34,-199.69c0,-101.8 80.67,-195.77 196.56,-195.77c68.92,0 116.69,35.24 145.66,72.04l122.17,0zm84.57,413.47l107.29,0l0,-475.33l211.43,0l0,475.33l107.29,0l0,-579.47l-426.01,0l0,579.47zm1221.64,0l107.28,0l0,-219.26l54.82,0c168.37,0 207.52,-106.5 207.52,-179.33c0,-54.81 -21.97,-180.88 -207.52,-180.88l-162.1,0l0,579.47zm107.28,-475.33l63.44,0c28.19,0 91.61,4.7 91.61,75.96c0,71.26 -63.47,75.96 -91.61,75.96l-63.44,0l0,-151.92zm-505.09,-114.32c-67.55,0 -128.9,20.64 -178.6,55.77c50.28,9.64 97.7,27.37 140.84,51.76c12.16,-2.22 24.76,-3.39 37.76,-3.39c113.54,0 198.12,88.49 198.12,196.55c0,29.13 -6.1,56.99 -17.24,82.18c12.14,41.58 18.66,85.54 18.66,131.04c0,6.32 -0.16,12.59 -0.41,18.85c65.54,-54.91 106.27,-137.04 106.27,-229.72c0,-167.57 -132.34,-303.04 -305.4,-303.04zm-190.92,64.97c-70.46,55.47 -114.5,141.43 -114.5,238.07c0,167.58 133.13,300.71 305.42,300.71c4.59,0 9.14,-0.12 13.68,-0.3c10.6,-34.05 17.38,-69.77 19.89,-106.65c-11.09,1.83 -22.55,2.8 -34.36,2.8c-111.99,0 -197.34,-89.27 -197.34,-198.91c0,-71.08 36.58,-133.69 93.96,-168.22c-26.08,-25.74 -55.2,-48.44 -86.75,-67.5zm-5511.27,0c-70.47,55.47 -114.51,141.43 -114.51,238.07c0,167.58 133.13,300.71 305.42,300.71c4.59,0 9.15,-0.12 13.68,-0.3c10.6,-34.05 17.38,-69.77 19.9,-106.65c-11.09,1.83 -22.56,2.8 -34.37,2.8c-111.98,0 -197.34,-89.27 -197.34,-198.91c0,-71.08 36.59,-133.69 93.97,-168.22c-26.09,-25.74 -55.21,-48.44 -86.75,-67.5z" id="svg_2"/>
   </g>
  </g>
 </g>
</svg>
