<?xml version="1.0" encoding="UTF-8"?>
<!DOCTYPE svg PUBLIC "-//W3C//DTD SVG 1.1//EN" "http://www.w3.org/Graphics/SVG/1.1/DTD/svg11.dtd">
<!-- Creator: CorelDRAW X8 -->
<svg xmlns="http://www.w3.org/2000/svg" xml:space="preserve" width="236px" height="18px" version="1.1" style="shape-rendering:geometricPrecision; text-rendering:geometricPrecision; image-rendering:optimizeQuality; fill-rule:evenodd; clip-rule:evenodd"
viewBox="0 0 2360 180"
 xmlns:xlink="http://www.w3.org/1999/xlink">
 <defs>
  <style type="text/css">
   <![CDATA[
    .fil0 {fill:#E1251D}
    .fil1 {fill:#fff;fill-rule:nonzero}
   ]]>
  </style>
 </defs>
 <g id="Слой_x0020_1">
  <metadata id="CorelCorpID_0Corel-Layer"/>
  <g id="_992945184">
   <path class="fil0" d="M14 178l111 0c1,-9 2,-18 2,-26 0,-67 -42,-124 -101,-145l-12 0c-6,0 -11,4 -11,11l0 149c0,6 5,11 11,11zm160 -79l0 -81c0,-7 -5,-11 -11,-11l-82 0c43,15 77,49 93,92z"/>
   <path class="fil1" d="M447 7c-20,0 -37,5 -51,15 14,3 28,8 40,15 3,-1 7,-1 11,-1 32,0 56,25 56,56 0,8 -2,16 -5,23 3,12 5,24 5,37 0,2 0,4 0,6 19,-16 30,-39 30,-66 0,-47 -37,-85 -86,-85zm1822 32c-17,0 -30,-13 -30,-30l57 0 5 0 54 0c0,17 -13,30 -29,30l-12 0 0 135 -31 0 -2 -135 -12 0zm-1916 -30c0,17 -13,30 -29,30l-34 0 0 135 -30 0 0 -165 93 0zm206 165l31 0 0 -62 15 0c48,0 59,-31 59,-51 0,-16 -6,-52 -59,-52l-46 0 0 165zm31 -135l18 0c8,0 26,1 26,21 0,21 -18,22 -26,22l-18 0 0 -43zm98 135l30 0 0 -123 44 123 26 0 44 -123 0 123 30 0 0 -165 -41 0 -46 126 -46 -126 -41 0 0 165zm195 0l34 0 17 -43 60 0 17 43 33 0 -68 -165 -24 0 -69 165zm62 -72l19 -48 18 48 -37 0zm120 -93l0 165 192 0 0 -165 -30 0 0 135 -51 0 0 -135 -30 0 0 135 -50 0 0 -135 -31 0zm251 47c14,-19 34,-20 43,-20 29,0 46,19 52,41l-75 0 0 29 75 0c-6,27 -29,42 -52,42 -17,0 -32,-6 -42,-19l-35 0c14,29 40,49 76,49 59,0 85,-48 85,-86 0,-39 -27,-85 -84,-85 -36,0 -65,19 -78,49l35 0zm153 118l31 0 0 -72 51 72 36 0 -62 -84 62 -81 -36 0 -51 72 0 -72 -31 0 0 165zm282 -118c-14,-31 -42,-49 -76,-49 -58,0 -86,48 -86,85 0,37 28,86 86,86 35,0 62,-20 75,-49l-35 0c-10,13 -25,19 -39,19 -32,0 -56,-26 -56,-56 0,-29 22,-56 55,-56 20,0 33,10 42,20l34 0zm24 118l31 0 0 -135 60 0 0 135 30 0 0 -165 -121 0 0 165zm347 0l30 0 0 -62 15 0c48,0 59,-31 59,-51 0,-16 -6,-52 -59,-52l-45 0 0 165zm30 -135l18 0c8,0 26,1 26,21 0,21 -18,22 -26,22l-18 0 0 -43zm-143 -32c-19,0 -37,5 -51,15 14,3 28,8 40,15 3,-1 7,-1 11,-1 32,0 56,25 56,56 0,8 -2,16 -5,23 3,12 5,24 5,37 0,2 0,4 0,6 19,-16 30,-39 30,-66 0,-47 -37,-85 -86,-85zm-54 18c-20,16 -33,40 -33,67 0,48 38,86 87,86 1,0 2,0 4,0 3,-10 5,-20 5,-31 -3,1 -6,1 -9,1 -32,0 -56,-25 -56,-56 0,-20 10,-38 26,-48 -7,-7 -15,-14 -24,-19zm-1563 0c-20,16 -32,40 -32,67 0,48 38,86 87,86 1,0 2,0 3,0 3,-10 5,-20 6,-31 -3,1 -6,1 -10,1 -31,0 -56,-25 -56,-56 0,-20 11,-38 27,-48 -7,-7 -16,-14 -25,-19z"/>
  </g>
 </g>
</svg>
