<?xml version="1.0" encoding="UTF-8"?>
<!DOCTYPE svg PUBLIC "-//W3C//DTD SVG 1.1//EN" "http://www.w3.org/Graphics/SVG/1.1/DTD/svg11.dtd">
<!-- Creator: CorelDRAW X8 -->
<svg xmlns="http://www.w3.org/2000/svg" xml:space="preserve" width="232px" height="135px" version="1.1" style="shape-rendering:geometricPrecision; text-rendering:geometricPrecision; image-rendering:optimizeQuality; fill-rule:evenodd; clip-rule:evenodd"
viewBox="0 0 2320 1350"
 xmlns:xlink="http://www.w3.org/1999/xlink">
 <defs>
  <style type="text/css">
   <![CDATA[
    .fil1 {fill:#E1251D}
    .fil0 {fill:white;fill-rule:nonzero}
   ]]>
  </style>
 </defs>
 <g id="Слой_x0020_1">
  <metadata id="CorelCorpID_0Corel-Layer"/>
  <g id="_1111758752">
   <path class="fil0" d="M242 990c-20,0 -39,6 -54,17 15,3 30,8 43,16 3,-1 7,-1 11,-1 34,0 60,26 60,59 0,8 -2,17 -6,24 4,13 6,26 6,40 0,2 0,4 0,5 20,-16 32,-41 32,-69 0,-50 -40,-91 -92,-91zm1934 35c-18,0 -32,-14 -32,-32l61 0 5 0 57 0c0,18 -14,32 -31,32l-13 0 0 143 -32 0 -3 -143 -12 0zm-2033 -32c0,18 -14,32 -32,32l-35 0 0 143 -32 0 0 -175 99 0zm219 175l32 0 0 -66 16 0c51,0 63,-32 63,-54 0,-17 -7,-55 -63,-55l-48 0 0 175zm32 -143l19 0c8,0 27,1 27,22 0,22 -19,23 -27,23l-19 0 0 -45zm104 143l32 0 0 -131 47 131 27 0 47 -131 0 131 32 0 0 -175 -44 0 -48 134 -49 -134 -44 0 0 175zm207 0l36 0 18 -45 64 0 18 45 35 0 -72 -175 -26 0 -73 175zm66 -77l20 -51 20 51 -40 0zm128 -98l0 175 203 0 0 -175 -32 0 0 143 -54 0 0 -143 -32 0 0 143 -53 0 0 -143 -32 0zm265 50c16,-20 37,-21 46,-21 31,0 49,20 55,43l-79 0 0 31 79 0c-5,28 -30,45 -55,45 -18,0 -34,-7 -44,-21l-37 0c14,31 42,52 80,52 63,0 91,-51 91,-92 0,-41 -29,-90 -90,-90 -38,0 -68,20 -82,53l36 0zm163 125l33 0 0 -77 54 77 39 0 -66 -89 66 -86 -39 0 -54 76 0 -76 -33 0 0 175zm300 -125c-15,-33 -45,-53 -81,-53 -62,0 -91,52 -91,90 0,40 29,92 90,92 38,0 66,-21 81,-52l-38 0c-11,14 -26,21 -42,21 -33,0 -59,-28 -59,-61 0,-30 24,-58 59,-58 21,0 35,10 44,21l37 0zm25 125l32 0 0 -143 64 0 0 143 32 0 0 -175 -128 0 0 175zm368 0l32 0 0 -66 16 0c51,0 63,-32 63,-54 0,-17 -7,-55 -63,-55l-48 0 0 175zm32 -143l19 0c8,0 27,1 27,22 0,22 -19,23 -27,23l-19 0 0 -45zm-152 -35c-20,0 -39,6 -54,17 15,3 30,8 42,16 4,-1 8,-1 12,-1 34,0 59,26 59,59 0,8 -1,17 -5,24 4,13 6,26 6,40 0,2 0,4 0,5 19,-16 32,-41 32,-69 0,-50 -40,-91 -92,-91zm-58 20c-21,16 -34,42 -34,71 0,51 40,91 92,91 1,0 3,0 4,0 3,-10 5,-21 6,-32 -3,0 -7,1 -10,1 -34,0 -60,-27 -60,-60 0,-22 11,-41 29,-51 -8,-8 -17,-15 -27,-20zm-1658 0c-21,16 -34,42 -34,71 0,51 40,91 92,91 1,0 3,0 4,0 3,-10 5,-21 6,-32 -3,0 -7,1 -10,1 -34,0 -60,-27 -60,-60 0,-22 11,-41 29,-51 -8,-8 -17,-15 -27,-20z"/>
   <path class="fil0" d="M91 1228l0 62 -6 0 0 -53 -35 53 -6 0 0 -62 6 0 0 53 34 -53 7 0zm29 62l-6 0 0 -62 6 0 0 27 29 0 0 -27 6 0 0 62 -6 0 0 -29 -29 0 0 29zm87 0l0 -62 6 0 0 62 -6 0zm6 -32l27 -30 8 0 -27 30 28 32 -8 0 -28 -32zm-6 0l-28 32 -8 0 29 -32 -28 -30 8 0 27 30zm105 -30l0 62 -6 0 0 -53 -35 53 -6 0 0 -62 6 0 0 53 35 -53 6 0zm29 62l-6 0 0 -62 6 0 0 27 29 0 0 -27 6 0 0 62 -6 0 0 -29 -29 0 0 29zm105 -62l0 62 -6 0 0 -53 -35 53 -6 0 0 -62 6 0 0 53 35 -53 6 0zm23 62l0 -62 15 0c14,0 21,6 21,18 0,6 -2,11 -6,14 -4,2 -9,4 -15,4l-9 0 0 26 -6 0zm6 -56l0 24 9 0c9,0 14,-4 14,-12 0,-8 -5,-12 -15,-12l-8 0zm96 -6l0 62 -6 0 0 -53 -34 53 -7 0 0 -62 6 0 0 53 35 -53 6 0zm29 62l-6 0 0 -62 6 0 0 27 29 0 0 -27 6 0 0 62 -6 0 0 -29 -29 0 0 29zm58 0l0 -62 29 0 0 6 -23 0 0 56 -6 0zm173 0l-6 0 0 -56 -12 0 0 -6 31 0 0 6 -13 0 0 56zm58 0l-32 0 0 -62 32 0 0 6 -26 0 0 21 23 0 0 6 -23 0 0 23 26 0 0 6zm19 0l-7 0 21 -31 -21 -31 8 0 17 26 16 -26 8 0 -21 31 21 31 -7 0 -17 -26 -18 26zm61 0l-6 0 0 -62 6 0 0 27 29 0 0 -27 6 0 0 62 -6 0 0 -29 -29 0 0 29zm114 -31c0,9 -3,16 -9,22 -6,7 -14,10 -23,10 -9,0 -16,-3 -22,-10 -6,-6 -9,-13 -9,-22 0,-9 3,-16 9,-22 7,-7 14,-10 22,-10 9,0 17,3 23,9 6,7 9,14 9,23zm-6 0c0,-8 -3,-14 -8,-19 -5,-5 -11,-7 -18,-7 -6,0 -12,2 -17,8 -5,5 -8,11 -8,18 0,7 3,13 7,19 5,5 11,7 19,7 7,0 13,-2 18,-8 5,-5 7,-11 7,-18zm12 31l23 -62 5 0 23 62 -6 0 -19 -52 0 0 -20 52 -6 0zm120 -31c0,9 -3,16 -9,22 -6,7 -13,10 -22,10 -9,0 -17,-3 -23,-10 -6,-6 -9,-13 -9,-22 0,-9 4,-16 10,-22 6,-7 13,-10 22,-10 8,0 16,3 22,9 6,7 9,14 9,23zm-6 0c0,-8 -2,-14 -7,-19 -5,-5 -11,-7 -18,-7 -7,0 -13,2 -18,8 -5,5 -7,11 -7,18 0,7 2,13 7,19 5,5 11,7 18,7 7,0 13,-2 18,-8 5,-5 7,-11 7,-18zm22 31l0 -62 29 0 0 6 -23 0 0 56 -6 0zm91 -62l0 62 -6 0 0 -53 -35 53 -7 0 0 -62 6 0 0 53 35 -53 7 0zm66 0l0 62 -6 0 0 -53 -35 53 -7 0 0 -62 6 0 0 53 35 -53 7 0zm195 31c0,9 -3,16 -9,22 -6,7 -14,10 -23,10 -8,0 -16,-3 -22,-10 -6,-6 -9,-13 -9,-22 0,-9 3,-16 10,-22 6,-7 13,-10 22,-10 8,0 16,3 22,9 6,7 9,14 9,23zm-6 0c0,-8 -2,-14 -7,-19 -5,-5 -11,-7 -19,-7 -6,0 -12,2 -17,8 -5,5 -8,11 -8,18 0,7 3,13 8,19 4,5 11,7 18,7 7,0 13,-2 18,-8 5,-5 7,-11 7,-18zm54 -31l0 6 -26 0 0 19 10 0c6,0 11,2 15,5 4,3 6,7 6,13 0,7 -2,11 -6,14 -4,3 -9,5 -15,5l-16 0 0 -62 32 0zm-26 31l0 25 10 0c4,0 8,-1 10,-3 3,-2 5,-5 5,-10 0,-4 -2,-7 -5,-9 -2,-2 -6,-3 -10,-3l-10 0zm107 0c0,9 -3,16 -9,22 -6,7 -14,10 -23,10 -9,0 -16,-3 -22,-10 -6,-6 -9,-13 -9,-22 0,-9 3,-16 9,-22 6,-7 14,-10 22,-10 9,0 16,3 22,9 7,7 10,14 10,23zm-6 0c0,-8 -3,-14 -8,-19 -5,-5 -11,-7 -18,-7 -7,0 -13,2 -18,8 -5,5 -7,11 -7,18 0,7 2,13 7,19 5,5 11,7 18,7 8,0 14,-2 19,-8 4,-5 7,-11 7,-18zm21 31l0 -62 15 0c15,0 22,6 22,18 0,6 -2,11 -6,14 -4,2 -9,4 -15,4l-10 0 0 26 -6 0zm6 -56l0 24 9 0c10,0 15,-4 15,-12 0,-8 -5,-12 -15,-12l-9 0zm66 38l0 0 20 -44 6 0 -28 62 -6 0 5 -11 -23 -51 6 0 20 44zm29 12l21 -56 5 0 21 56 4 0 0 6 -54 0 0 -6 3 0zm24 -47l-18 47 35 0 -17 -47 0 0zm95 22c0,9 -3,16 -9,22 -7,7 -14,10 -23,10 -9,0 -16,-3 -22,-10 -6,-6 -9,-13 -9,-22 0,-9 3,-16 9,-22 6,-7 14,-10 22,-10 9,0 16,3 22,9 7,7 10,14 10,23zm-6 0c0,-8 -3,-14 -8,-19 -5,-5 -11,-7 -18,-7 -7,0 -13,2 -18,8 -5,5 -7,11 -7,18 0,7 2,13 7,19 5,5 11,7 18,7 8,0 14,-2 19,-8 4,-5 7,-11 7,-18zm21 31l0 -62 12 0c6,0 11,1 14,4 4,2 6,6 6,12 0,7 -3,11 -8,13 8,2 12,7 12,15 0,12 -8,18 -22,18l-14 0zm6 -56l0 21 7 0c4,0 7,0 10,-2 2,-2 3,-5 3,-9 0,-7 -5,-10 -14,-10l-6 0zm0 26l0 24 8 0c10,0 16,-4 16,-11 0,-5 -2,-8 -4,-10 -3,-2 -6,-3 -11,-3l-9 0zm92 30l-7 0 -7 -20 -25 0 -8 20 -6 0 24 -62 5 0 24 62zm-27 -52l-10 26 21 0 -11 -26 0 0zm44 52l-6 0 0 -62 6 0 0 27 30 0 0 -27 6 0 0 62 -6 0 0 -29 -30 0 0 29zm102 -62l0 62 -6 0 0 -53 -35 53 -6 0 0 -62 6 0 0 53 34 -53 7 0zm50 62l-31 0 0 -62 31 0 0 6 -25 0 0 21 22 0 0 6 -22 0 0 23 25 0 0 6zm-1471 -62l0 81 -4 0 0 -81 4 0zm700 0l0 81 -5 0 0 -81 5 0z"/>
   <path class="fil1" d="M89 761l453 0c6,-35 9,-71 9,-107 0,-273 -172,-506 -414,-596l-48 0c-25,0 -45,21 -45,46l0 612c0,24 20,45 45,45zm657 -324l0 -333c0,-25 -20,-46 -45,-46l-338 0c177,63 318,203 383,379z"/>
  </g>
 </g>
</svg>
